<?xml version="1.0" encoding="utf-8"?>
<!-- Generator: Adobe Illustrator 26.0.2, SVG Export Plug-In . SVG Version: 6.00 Build 0)  -->
<svg version="1.1" id="Layer_1" xmlns="http://www.w3.org/2000/svg" xmlns:xlink="http://www.w3.org/1999/xlink" x="0px" y="0px"
	 viewBox="0 0 1000 1000" style="enable-background:new 0 0 1000 1000;" xml:space="preserve">
<style type="text/css">
	.st0{fill-rule:evenodd;clip-rule:evenodd;fill:#464545;}
	.st1{fill:#FC6D6D;}
	.st2{fill-rule:evenodd;clip-rule:evenodd;fill:#FFFFFF;}
	.st3{fill:#FFFFFF;}
	.st4{fill:#1875E8;}
</style>
<rect x="-2040" class="st0" width="1000" height="1000"/>
<g>
	<path class="st0" d="M-2628.83,465.65h11.94c0.6,0,1.1,0.5,1.1,1.1V586.2c0,0.61-0.49,1.1-1.1,1.11h-11.94
		c-0.61-0.01-1.1-0.5-1.1-1.11V466.75C-2629.93,466.15-2629.43,465.65-2628.83,465.65z"/>
	<path class="st0" d="M-2546.79,563.93v3.01c0,1.3-0.2,3.11-0.7,5.42c-0.4,2.2-1.6,4.51-3.51,6.72s-4.71,4.21-8.53,5.82
		c-3.81,1.6-9.03,2.41-15.75,2.41c-6.72,0-11.94-0.8-15.75-2.41c-3.81-1.6-6.62-3.51-8.53-5.82c-1.9-2.21-3.11-4.51-3.51-6.82
		c-0.4-2.31-0.7-4.01-0.7-5.32v-68c0-0.6,0.5-1.1,1.1-1.1h11.94c0.6,0,1.1,0.5,1.1,1.1v63.69c0,2.11,0.3,3.61,0.6,4.81
		c0.3,1.2,0.9,2.41,1.8,3.41c0.9,1.11,2.31,2.01,4.21,2.71c1.8,0.7,4.31,1.1,7.42,1.1c3.21,0,5.81-0.41,7.72-1.1
		c1.9-0.71,3.31-1.6,4.32-2.61c1-1,1.7-2.11,2.01-3.31c0.3-1.2,0.7-2.2,0.7-5.11v-63.59c0-0.6,0.5-1.1,1.1-1.1h11.94
		c0.6,0,1.1,0.5,1.1,1.1v64.99L-2546.79,563.93L-2546.79,563.93z"/>
	<path class="st0" d="M-2648.69,503.56c-4.61-3.81-11.74-5.71-21.46-5.71c-5.02,0-9.33,0.6-12.84,1.6c-3.61,1-6.52,2.5-8.83,4.31
		c-2.41,1.8-4.11,4.01-5.11,6.42c-1.1,2.4-1.6,5.01-1.6,7.82v2.91c0.01,0.61,0.5,1.1,1.11,1.1h12.03c0.6,0,1.1-0.4,1.1-1
		c0.16-2.66,1.18-5.19,2.91-7.22c2.01-2.31,5.72-3.41,11.23-3.41c2.81,0,5.11,0.3,6.92,0.9c1.81,0.6,3.31,1.41,4.42,2.41
		c1.1,1,1.9,2.01,2.31,3.21c0.5,1.2,0.71,2.31,0.71,3.41v3.11c0,1.3-0.2,2.51-0.71,3.51c-0.5,0.9-1,1.8-1.71,2.61
		c-0.7,0.7-1.4,1.3-2.11,1.7c-0.7,0.4-1.3,0.7-1.7,0.9c-0.4,0.2-1.5,0.5-3.31,1.2c-1.8,0.6-3.81,1.4-6.22,2.2
		c-2.41,0.91-4.91,1.71-7.42,2.61c-2.61,0.9-4.81,1.6-6.82,2.31c-4.02,1.41-7.02,3.91-9.23,7.32c-2.1,3.41-3.21,7.22-3.21,11.44
		v7.82c0,1.9,0.4,4.11,1.1,6.52c0.7,2.31,2.11,4.52,4.21,6.52c2.1,2.01,5.02,3.71,8.63,5.01c3.61,1.3,8.33,2.01,14.24,2.01
		c5.81,0,10.63-0.7,14.24-2.01c3.61-1.41,6.52-3.01,8.62-5.01c2.11-1.91,3.51-4.11,4.21-6.52c0.7-2.31,1.1-4.51,1.1-6.52V517.9
		C-2641.87,512.19-2644.17,507.37-2648.69,503.56z M-2655.81,562.43c0,4.01-1,7.02-3.01,9.23c-2.01,2.11-5.82,3.21-11.33,3.21
		c-5.42,0-9.13-1.1-11.13-3.11c-2.01-2.11-3.01-5.21-3.01-9.43c0-2.1,0.4-3.81,1.2-5.21c0.81-1.4,1.71-2.51,2.71-3.41
		c1.16-0.94,2.44-1.71,3.81-2.31c1.71-0.7,3.61-1.3,5.62-2.01c1.71-0.5,3.51-1.2,5.42-1.9c1.9-0.7,3.71-1.3,5.41-1.9
		c0.81-0.3,1.6-0.6,2.51-1.2c0.9-0.56,1.52-1.47,1.71-2.51h0.1V562.43z"/>
	<g>
		<path class="st0" d="M-2506.17,497.84h8.02c0.71,0,1.2,0.7,1,1.4l-2.71,10.43c-0.1,0.5-0.6,0.8-1,0.8h-5.62
			c-3.01,0-5.42,0.41-7.32,1.2c-1.8,0.8-3.31,1.71-4.31,2.81c-0.89,0.94-1.54,2.07-1.9,3.31c-0.3,1.2-0.41,2.31-0.41,3.31v65.19
			c0,0.61-0.49,1.1-1.1,1.11h-12.03c-0.61-0.01-1.1-0.5-1.1-1.11v-68c0-1.2,0.2-3.01,0.7-5.32c0.4-2.31,1.6-4.51,3.51-6.82
			c1.9-2.21,4.72-4.21,8.53-5.82C-2518.2,498.65-2512.89,497.84-2506.17,497.84z"/>
		<path class="st0" d="M-2441.98,503.56c-4.62-3.81-11.74-5.71-21.46-5.71c-5.02,0-9.23,0.6-12.84,1.6c-3.61,1-6.52,2.5-8.82,4.31
			c-2.41,1.8-4.11,4.01-5.11,6.42c-1.1,2.4-1.6,5.01-1.6,7.82v2.91c0.01,0.61,0.5,1.1,1.1,1.1h12.03c0.6,0,1.11-0.4,1.11-1
			c0.16-2.66,1.18-5.19,2.91-7.22c2.01-2.31,5.71-3.41,11.23-3.41c2.81,0,5.11,0.3,6.92,0.9c1.8,0.6,3.31,1.41,4.41,2.41
			c1.11,1,1.91,2.01,2.31,3.21c0.5,1.2,0.7,2.31,0.7,3.41v3.11c0,1.3-0.2,2.51-0.7,3.51c-0.5,0.9-1,1.8-1.71,2.61
			c-0.7,0.7-1.4,1.3-2.11,1.7c-0.7,0.4-1.3,0.7-1.7,0.9c-0.4,0.2-1.51,0.5-3.31,1.2c-1.8,0.6-3.81,1.4-6.22,2.2
			c-2.41,0.91-4.92,1.71-7.42,2.61c-2.61,0.9-4.82,1.6-6.82,2.31c-4.01,1.41-7.02,3.91-9.23,7.32c-2.11,3.41-3.21,7.22-3.21,11.44
			v7.82c0,1.9,0.4,4.11,1.1,6.52c0.71,2.31,2.11,4.52,4.21,6.52c2.1,2.01,5.02,3.71,8.63,5.01s8.33,2.01,14.24,2.01
			c5.81,0,10.63-0.7,14.24-2.01c3.61-1.41,6.52-3.01,8.63-5.01c2.11-1.91,3.51-4.11,4.21-6.52c0.7-2.31,1.1-4.51,1.1-6.52V517.9
			C-2435.16,512.19-2437.47,507.37-2441.98,503.56z M-2449.1,562.43c0,4.01-1,7.02-3.01,9.23c-2.01,2.11-5.82,3.21-11.33,3.21
			c-5.42,0-9.13-1.1-11.13-3.11c-2.01-2.11-3.01-5.21-3.01-9.43c0-2.1,0.4-3.81,1.2-5.21c0.8-1.4,1.71-2.51,2.71-3.41
			c1.16-0.94,2.44-1.71,3.81-2.31c1.7-0.7,3.61-1.3,5.62-2.01c1.71-0.5,3.51-1.2,5.41-1.9c1.91-0.7,3.72-1.3,5.42-1.9
			c0.81-0.3,1.6-0.6,2.51-1.2c0.9-0.56,1.52-1.47,1.71-2.51h0.1V562.43z"/>
	</g>
</g>
<path class="st1" d="M-2424.99,430.67c13.05-35.48-13.99-54.82-31.94-67.65c-3.62-2.59-7.03-5.03-9.63-7.25
	c-17.02-14.52-11.07-34.22-10.81-35.04c0.44-1.35,0.06-2.84-0.96-3.82c-1.02-0.99-2.52-1.3-3.86-0.82
	c-0.35,0.13-8.58,3.18-16.63,9.92c-10.34,8.67-15.64,19.51-15.43,31.46c-2.09,1.63-5.67,4.79-8.86,9.3
	c-4.77,6.76-6.98,14.16-6.57,21.78c-15.94,14.31-14.43,33.16-13.07,40.5c-3.35,2.06-5.59,5.75-5.59,9.96
	c0,6.45,5.24,11.69,11.69,11.69h0.25v20.16c0,4.25,3.46,7.7,7.71,7.7h6.02h10.19h21.73h11.71h21.72h10.19h3.93h2.09
	c4.25,0,7.7-3.46,7.7-7.7v-20.16h0.26c6.44,0,11.69-5.24,11.69-11.69C-2421.47,435.75-2422.82,432.8-2424.99,430.67z
	 M-2513.05,366.32c4.95,18.57,24.21,25.87,41.41,32.39c1.92,0.73,4.07-0.24,4.8-2.16c0.73-1.92-0.24-4.07-2.16-4.8
	c-18.72-7.09-36.39-13.79-37.73-32.7c-0.73-10.38,3.48-19.53,12.53-27.18c2.9-2.46,5.87-4.37,8.37-5.77
	c-0.18,2.09-0.24,4.51-0.04,7.15c1.06,14.01,8.46,23.07,14.47,28.21c2.85,2.43,6.39,4.96,10.14,7.64
	c9.03,6.46,19.27,13.78,25.82,23.5c7.07,10.5,8.28,21.91,3.71,34.84c-0.47-0.06-0.94-0.09-1.42-0.09h-13.71
	c-31.25,0-67.17-8.63-74.27-32.85C-2525.05,381.15-2518.14,371.38-2513.05,366.32z M-2433.16,443.26h-11.94
	c-2.06,0-3.73,1.67-3.73,3.72c0,2.06,1.67,3.72,3.73,3.72h4.24v20.16c0,0.14-0.11,0.26-0.25,0.26h-87.58
	c-0.14,0-0.26-0.11-0.26-0.26v-20.16h67.93c2.06,0,3.72-1.67,3.72-3.72c0-2.06-1.67-3.72-3.72-3.72h-75.64
	c-2.34,0-4.24-1.9-4.24-4.24s1.9-4.24,4.24-4.24h7.96c2.06,0,3.72-1.67,3.72-3.72c0-2.06-1.67-3.72-3.72-3.72h-6.79
	c-0.95-5.56-1.89-18.8,7.48-29.84c2.42,7.47,8.58,17.71,24.04,25.82c14.51,7.61,33.72,11.47,57.09,11.47h13.71
	c2.33,0,4.24,1.9,4.24,4.24S-2430.82,443.26-2433.16,443.26z"/>
<g>
	<path class="st1" d="M-2688.39,682.01c-3.1-1.42-5.53-3.39-7.3-5.93c-1.77-2.54-2.72-5.37-2.83-8.5h6.55
		c0.29,3.01,1.62,5.65,3.98,7.92c2.36,2.27,5.81,3.41,10.36,3.41c4.19,0,7.51-1.08,9.96-3.23c2.45-2.15,3.67-4.88,3.67-8.19
		c0-2.66-0.68-4.79-2.04-6.42c-1.36-1.62-3.04-2.83-5.05-3.63c-2.01-0.8-4.78-1.67-8.32-2.61c-4.13-1.12-7.41-2.21-9.83-3.28
		c-2.42-1.06-4.49-2.71-6.2-4.96c-1.71-2.24-2.57-5.28-2.57-9.12c0-3.19,0.83-6.03,2.48-8.54c1.65-2.51,3.98-4.47,6.99-5.89
		c3.01-1.42,6.46-2.12,10.36-2.12c5.72,0,10.34,1.4,13.86,4.21c3.51,2.8,5.53,6.42,6.06,10.84h-6.73c-0.41-2.54-1.8-4.79-4.16-6.77
		c-2.36-1.98-5.55-2.97-9.56-2.97c-3.72,0-6.82,0.99-9.3,2.97c-2.48,1.98-3.72,4.68-3.72,8.1c0,2.6,0.68,4.69,2.04,6.29
		c1.36,1.59,3.05,2.8,5.09,3.63c2.04,0.83,4.79,1.71,8.28,2.66c4.01,1.12,7.26,2.23,9.74,3.32c2.48,1.09,4.57,2.76,6.29,5
		c1.71,2.24,2.57,5.25,2.57,9.03c0,2.89-0.77,5.64-2.3,8.23c-1.54,2.6-3.81,4.69-6.82,6.29c-3.01,1.59-6.61,2.39-10.8,2.39
		C-2681.71,684.13-2685.3,683.42-2688.39,682.01z"/>
	<path class="st1" d="M-2610.98,683.51l-26.82-28.59v28.59h-6.2v-61.88h6.2v28.95l26.82-28.95h7.88l-28.95,30.9l29.21,30.98
		H-2610.98z"/>
	<path class="st1" d="M-2585.75,621.63v61.88h-6.2v-61.88H-2585.75z"/>
	<path class="st1" d="M-2509.44,622.43v61.08h-6.2v-48.78l-21.78,48.78h-4.52l-21.78-48.6v48.6h-6.2v-61.08h6.55l23.64,52.94
		l23.64-52.94H-2509.44z"/>
	<path class="st1" d="M-2481.37,680.1c-4.66-2.68-8.34-6.43-11.02-11.24c-2.69-4.81-4.03-10.25-4.03-16.33
		c0-6.08,1.34-11.52,4.03-16.33c2.68-4.81,6.36-8.56,11.02-11.24c4.66-2.69,9.86-4.03,15.58-4.03c5.78,0,11.01,1.34,15.67,4.03
		c4.66,2.69,8.32,6.43,10.98,11.24c2.66,4.81,3.98,10.26,3.98,16.33c0,6.08-1.33,11.52-3.98,16.33c-2.66,4.81-6.32,8.56-10.98,11.24
		c-4.66,2.69-9.89,4.03-15.67,4.03C-2471.52,684.13-2476.71,682.79-2481.37,680.1z M-2453.4,675.54c3.66-2.12,6.55-5.18,8.68-9.16
		c2.12-3.98,3.19-8.6,3.19-13.85c0-5.25-1.06-9.86-3.19-13.81c-2.12-3.95-5.02-6.99-8.68-9.12c-3.66-2.12-7.79-3.19-12.39-3.19
		c-4.6,0-8.74,1.06-12.39,3.19c-3.66,2.12-6.55,5.17-8.68,9.12c-2.12,3.95-3.19,8.56-3.19,13.81c0,5.25,1.06,9.87,3.19,13.85
		c2.12,3.98,5.02,7.04,8.68,9.16c3.66,2.12,7.79,3.19,12.39,3.19C-2461.19,678.73-2457.06,677.67-2453.4,675.54z"/>
</g>
<g>
	<g>
		<path class="st2" d="M-1608.83,465.65h11.94c0.6,0,1.1,0.5,1.1,1.1V586.2c0,0.61-0.49,1.1-1.1,1.11h-11.94
			c-0.61-0.01-1.1-0.5-1.1-1.11V466.75C-1609.93,466.15-1609.43,465.65-1608.83,465.65z"/>
		<path class="st2" d="M-1526.79,563.93v3.01c0,1.3-0.2,3.11-0.7,5.42c-0.4,2.2-1.6,4.51-3.51,6.72s-4.71,4.21-8.53,5.82
			c-3.81,1.6-9.03,2.41-15.75,2.41c-6.72,0-11.94-0.8-15.75-2.41c-3.81-1.6-6.62-3.51-8.53-5.82c-1.9-2.21-3.11-4.51-3.51-6.82
			c-0.4-2.31-0.7-4.01-0.7-5.32v-68c0-0.6,0.5-1.1,1.1-1.1h11.94c0.6,0,1.1,0.5,1.1,1.1v63.69c0,2.11,0.3,3.61,0.6,4.81
			c0.3,1.2,0.9,2.41,1.8,3.41c0.9,1.11,2.31,2.01,4.21,2.71c1.8,0.7,4.31,1.1,7.42,1.1c3.21,0,5.81-0.41,7.72-1.1
			c1.9-0.71,3.31-1.6,4.32-2.61c1-1,1.7-2.11,2.01-3.31c0.3-1.2,0.7-2.2,0.7-5.11v-63.59c0-0.6,0.5-1.1,1.1-1.1h11.94
			c0.6,0,1.1,0.5,1.1,1.1v64.99L-1526.79,563.93L-1526.79,563.93z"/>
		<path class="st2" d="M-1628.69,503.56c-4.61-3.81-11.74-5.71-21.46-5.71c-5.02,0-9.33,0.6-12.84,1.6c-3.61,1-6.52,2.5-8.83,4.31
			c-2.41,1.8-4.11,4.01-5.11,6.42c-1.1,2.4-1.6,5.01-1.6,7.82v2.91c0.01,0.61,0.5,1.1,1.11,1.1h12.03c0.6,0,1.1-0.4,1.1-1
			c0.16-2.66,1.18-5.19,2.91-7.22c2.01-2.31,5.72-3.41,11.23-3.41c2.81,0,5.11,0.3,6.92,0.9c1.81,0.6,3.31,1.41,4.42,2.41
			c1.1,1,1.9,2.01,2.31,3.21c0.5,1.2,0.71,2.31,0.71,3.41v3.11c0,1.3-0.2,2.51-0.71,3.51c-0.5,0.9-1,1.8-1.71,2.61
			c-0.7,0.7-1.4,1.3-2.11,1.7c-0.7,0.4-1.3,0.7-1.7,0.9c-0.4,0.2-1.5,0.5-3.31,1.2c-1.8,0.6-3.81,1.4-6.22,2.2
			c-2.41,0.91-4.91,1.71-7.42,2.61c-2.61,0.9-4.81,1.6-6.82,2.31c-4.02,1.41-7.02,3.91-9.23,7.32c-2.1,3.41-3.21,7.22-3.21,11.44
			v7.82c0,1.9,0.4,4.11,1.1,6.52c0.71,2.31,2.11,4.52,4.21,6.52c2.1,2.01,5.02,3.71,8.63,5.01s8.33,2.01,14.24,2.01
			c5.81,0,10.63-0.7,14.24-2.01c3.61-1.41,6.52-3.01,8.62-5.01c2.11-1.91,3.51-4.11,4.21-6.52c0.7-2.31,1.1-4.51,1.1-6.52V517.9
			C-1621.87,512.19-1624.17,507.37-1628.69,503.56z M-1635.81,562.43c0,4.01-1,7.02-3.01,9.23c-2.01,2.11-5.82,3.21-11.33,3.21
			c-5.42,0-9.13-1.1-11.13-3.11c-2.01-2.11-3.01-5.21-3.01-9.43c0-2.1,0.4-3.81,1.2-5.21c0.81-1.4,1.71-2.51,2.71-3.41
			c1.16-0.94,2.44-1.71,3.81-2.31c1.71-0.7,3.61-1.3,5.62-2.01c1.71-0.5,3.51-1.2,5.42-1.9c1.9-0.7,3.71-1.3,5.41-1.9
			c0.81-0.3,1.6-0.6,2.51-1.2c0.9-0.56,1.52-1.47,1.71-2.51h0.1V562.43z"/>
		<g>
			<path class="st2" d="M-1486.17,497.84h8.02c0.7,0,1.2,0.7,1,1.4l-2.71,10.43c-0.1,0.5-0.6,0.8-1,0.8h-5.62
				c-3.01,0-5.42,0.41-7.32,1.2c-1.8,0.8-3.31,1.71-4.31,2.81c-0.89,0.94-1.54,2.07-1.9,3.31c-0.3,1.2-0.41,2.31-0.41,3.31v65.19
				c0,0.61-0.49,1.1-1.1,1.11h-12.03c-0.61-0.01-1.1-0.5-1.1-1.11v-68c0-1.2,0.2-3.01,0.7-5.32c0.4-2.31,1.6-4.51,3.51-6.82
				c1.9-2.21,4.72-4.21,8.53-5.82C-1498.2,498.65-1492.89,497.84-1486.17,497.84z"/>
			<path class="st2" d="M-1421.98,503.56c-4.62-3.81-11.74-5.71-21.46-5.71c-5.02,0-9.23,0.6-12.84,1.6c-3.61,1-6.52,2.5-8.82,4.31
				c-2.41,1.8-4.11,4.01-5.11,6.42c-1.1,2.4-1.6,5.01-1.6,7.82v2.91c0.01,0.61,0.5,1.1,1.1,1.1h12.03c0.6,0,1.11-0.4,1.11-1
				c0.16-2.66,1.18-5.19,2.91-7.22c2.01-2.31,5.71-3.41,11.23-3.41c2.81,0,5.11,0.3,6.92,0.9c1.8,0.6,3.31,1.41,4.41,2.41
				c1.11,1,1.91,2.01,2.31,3.21c0.5,1.2,0.7,2.31,0.7,3.41v3.11c0,1.3-0.2,2.51-0.7,3.51c-0.5,0.9-1,1.8-1.71,2.61
				c-0.7,0.7-1.4,1.3-2.11,1.7c-0.7,0.4-1.3,0.7-1.7,0.9c-0.4,0.2-1.51,0.5-3.31,1.2c-1.8,0.6-3.81,1.4-6.22,2.2
				c-2.41,0.91-4.91,1.71-7.42,2.61c-2.61,0.9-4.82,1.6-6.82,2.31c-4.01,1.41-7.02,3.91-9.23,7.32c-2.11,3.41-3.21,7.22-3.21,11.44
				v7.82c0,1.9,0.4,4.11,1.1,6.52c0.7,2.31,2.11,4.52,4.21,6.52c2.1,2.01,5.02,3.71,8.63,5.01c3.61,1.3,8.33,2.01,14.24,2.01
				c5.81,0,10.63-0.7,14.24-2.01c3.61-1.41,6.52-3.01,8.63-5.01c2.11-1.91,3.51-4.11,4.21-6.52c0.7-2.31,1.1-4.51,1.1-6.52V517.9
				C-1415.16,512.19-1417.47,507.37-1421.98,503.56z M-1429.1,562.43c0,4.01-1,7.02-3.01,9.23c-2.01,2.11-5.82,3.21-11.33,3.21
				c-5.42,0-9.13-1.1-11.13-3.11c-2.01-2.11-3.01-5.21-3.01-9.43c0-2.1,0.4-3.81,1.2-5.21c0.8-1.4,1.71-2.51,2.71-3.41
				c1.16-0.94,2.44-1.71,3.81-2.31c1.7-0.7,3.61-1.3,5.62-2.01c1.71-0.5,3.51-1.2,5.41-1.9c1.91-0.7,3.72-1.3,5.42-1.9
				c0.81-0.3,1.6-0.6,2.51-1.2c0.9-0.56,1.52-1.47,1.71-2.51h0.1V562.43z"/>
		</g>
	</g>
	<path class="st3" d="M-1404.99,430.67c13.05-35.48-13.99-54.82-31.94-67.65c-3.62-2.59-7.03-5.03-9.63-7.25
		c-17.02-14.52-11.07-34.22-10.81-35.04c0.44-1.35,0.06-2.84-0.96-3.82c-1.02-0.99-2.52-1.3-3.86-0.82
		c-0.35,0.13-8.58,3.18-16.63,9.92c-10.34,8.67-15.64,19.51-15.43,31.46c-2.09,1.63-5.67,4.79-8.86,9.3
		c-4.77,6.76-6.98,14.16-6.57,21.78c-15.94,14.31-14.43,33.16-13.07,40.5c-3.35,2.06-5.59,5.75-5.59,9.96
		c0,6.45,5.24,11.69,11.69,11.69h0.25v20.16c0,4.25,3.46,7.7,7.71,7.7h6.02h10.18h21.73h11.71h21.72h10.19h3.93h2.09
		c4.25,0,7.7-3.46,7.7-7.7v-20.16h0.26c6.44,0,11.69-5.24,11.69-11.69C-1401.47,435.75-1402.82,432.8-1404.99,430.67z
		 M-1493.05,366.32c4.95,18.57,24.21,25.87,41.41,32.39c1.92,0.73,4.07-0.24,4.8-2.16c0.73-1.92-0.24-4.07-2.16-4.8
		c-18.72-7.09-36.39-13.79-37.73-32.7c-0.73-10.38,3.48-19.53,12.53-27.18c2.9-2.46,5.87-4.37,8.37-5.77
		c-0.18,2.09-0.24,4.51-0.04,7.15c1.06,14.01,8.46,23.07,14.47,28.21c2.85,2.43,6.39,4.96,10.14,7.64
		c9.03,6.46,19.27,13.78,25.82,23.5c7.07,10.5,8.28,21.91,3.71,34.84c-0.47-0.06-0.94-0.09-1.42-0.09h-13.71
		c-31.25,0-67.17-8.63-74.27-32.85C-1505.05,381.15-1498.14,371.38-1493.05,366.32z M-1413.16,443.26h-11.94
		c-2.06,0-3.73,1.67-3.73,3.72c0,2.06,1.67,3.72,3.73,3.72h4.24v20.16c0,0.14-0.11,0.26-0.25,0.26h-87.58
		c-0.14,0-0.26-0.11-0.26-0.26v-20.16h67.93c2.06,0,3.72-1.67,3.72-3.72c0-2.06-1.67-3.72-3.72-3.72h-75.64
		c-2.34,0-4.24-1.9-4.24-4.24s1.9-4.24,4.24-4.24h7.96c2.06,0,3.72-1.67,3.72-3.72c0-2.06-1.67-3.72-3.72-3.72h-6.79
		c-0.95-5.56-1.89-18.8,7.48-29.84c2.42,7.47,8.58,17.71,24.04,25.82c14.51,7.61,33.72,11.47,57.09,11.47h13.71
		c2.33,0,4.24,1.9,4.24,4.24S-1410.82,443.26-1413.16,443.26z"/>
	<g>
		<path class="st3" d="M-1668.39,682.01c-3.1-1.42-5.53-3.39-7.3-5.93c-1.77-2.54-2.72-5.37-2.83-8.5h6.55
			c0.29,3.01,1.62,5.65,3.98,7.92c2.36,2.27,5.81,3.41,10.36,3.41c4.19,0,7.51-1.08,9.96-3.23c2.45-2.15,3.67-4.88,3.67-8.19
			c0-2.66-0.68-4.79-2.04-6.42c-1.36-1.62-3.04-2.83-5.05-3.63c-2.01-0.8-4.78-1.67-8.32-2.61c-4.13-1.12-7.41-2.21-9.83-3.28
			c-2.42-1.06-4.49-2.71-6.2-4.96c-1.71-2.24-2.57-5.28-2.57-9.12c0-3.19,0.83-6.03,2.48-8.54c1.65-2.51,3.98-4.47,6.99-5.89
			c3.01-1.42,6.46-2.12,10.36-2.12c5.72,0,10.34,1.4,13.86,4.21c3.51,2.8,5.53,6.42,6.06,10.84h-6.73c-0.41-2.54-1.8-4.79-4.16-6.77
			c-2.36-1.98-5.55-2.97-9.56-2.97c-3.72,0-6.82,0.99-9.3,2.97c-2.48,1.98-3.72,4.68-3.72,8.1c0,2.6,0.68,4.69,2.04,6.29
			c1.36,1.59,3.05,2.8,5.09,3.63c2.04,0.83,4.79,1.71,8.28,2.66c4.01,1.12,7.26,2.23,9.74,3.32c2.48,1.09,4.57,2.76,6.29,5
			c1.71,2.24,2.57,5.25,2.57,9.03c0,2.89-0.77,5.64-2.3,8.23c-1.54,2.6-3.81,4.69-6.82,6.29c-3.01,1.59-6.61,2.39-10.8,2.39
			C-1661.71,684.13-1665.3,683.42-1668.39,682.01z"/>
		<path class="st3" d="M-1590.98,683.51l-26.82-28.59v28.59h-6.2v-61.88h6.2v28.95l26.82-28.95h7.88l-28.95,30.9l29.21,30.98
			H-1590.98z"/>
		<path class="st3" d="M-1565.75,621.63v61.88h-6.2v-61.88H-1565.75z"/>
		<path class="st3" d="M-1489.44,622.43v61.08h-6.2v-48.78l-21.78,48.78h-4.52l-21.78-48.6v48.6h-6.2v-61.08h6.55l23.64,52.94
			l23.64-52.94H-1489.44z"/>
		<path class="st3" d="M-1461.37,680.1c-4.66-2.68-8.34-6.43-11.02-11.24c-2.69-4.81-4.03-10.25-4.03-16.33
			c0-6.08,1.34-11.52,4.03-16.33c2.68-4.81,6.36-8.56,11.02-11.24c4.66-2.69,9.86-4.03,15.58-4.03c5.78,0,11.01,1.34,15.67,4.03
			c4.66,2.69,8.32,6.43,10.98,11.24c2.66,4.81,3.98,10.26,3.98,16.33c0,6.08-1.33,11.52-3.98,16.33
			c-2.66,4.81-6.32,8.56-10.98,11.24c-4.66,2.69-9.89,4.03-15.67,4.03C-1451.52,684.13-1456.71,682.79-1461.37,680.1z
			 M-1433.4,675.54c3.66-2.12,6.55-5.18,8.68-9.16c2.12-3.98,3.19-8.6,3.19-13.85c0-5.25-1.06-9.86-3.19-13.81
			c-2.12-3.95-5.02-6.99-8.68-9.12c-3.66-2.12-7.79-3.19-12.39-3.19c-4.6,0-8.74,1.06-12.39,3.19c-3.66,2.12-6.55,5.17-8.68,9.12
			c-2.12,3.95-3.19,8.56-3.19,13.81c0,5.25,1.06,9.87,3.19,13.85c2.12,3.98,5.02,7.04,8.68,9.16c3.66,2.12,7.79,3.19,12.39,3.19
			C-1441.19,678.73-1437.06,677.67-1433.4,675.54z"/>
	</g>
</g>
<text transform="matrix(1 0 0 1 -3483.0352 360.2729)" style="font-family:'Poppins-Light'; font-size:90.7762px; letter-spacing:1;">SKIMO</text>
<rect x="0" class="st0" width="1000" height="1000"/>
<g>
	<g>
		<g>
			<path class="st2" d="M560.4,390.76h11.94c0.6,0,1.1,0.5,1.1,1.1v119.45c0,0.61-0.49,1.1-1.1,1.11H560.4
				c-0.61-0.01-1.1-0.5-1.1-1.11V391.86C559.3,391.26,559.8,390.76,560.4,390.76z"/>
			<path class="st2" d="M642.44,489.05v3.01c0,1.3-0.2,3.11-0.7,5.42c-0.4,2.2-1.6,4.51-3.51,6.72c-1.9,2.21-4.71,4.21-8.53,5.82
				c-3.81,1.6-9.03,2.41-15.75,2.41c-6.72,0-11.94-0.8-15.75-2.41c-3.81-1.6-6.62-3.51-8.53-5.82c-1.9-2.21-3.11-4.51-3.51-6.82
				c-0.4-2.31-0.7-4.01-0.7-5.32v-68c0-0.6,0.5-1.1,1.1-1.1h11.94c0.6,0,1.1,0.5,1.1,1.1v63.69c0,2.11,0.3,3.61,0.6,4.81
				c0.3,1.2,0.9,2.41,1.8,3.41c0.9,1.11,2.31,2.01,4.21,2.71c1.8,0.7,4.31,1.1,7.42,1.1c3.21,0,5.81-0.41,7.72-1.1
				c1.9-0.71,3.31-1.6,4.32-2.61c1-1,1.7-2.11,2.01-3.31c0.3-1.2,0.7-2.2,0.7-5.11v-63.59c0-0.6,0.5-1.1,1.1-1.1h11.94
				c0.6,0,1.1,0.5,1.1,1.1v64.99L642.44,489.05L642.44,489.05z"/>
			<path class="st2" d="M540.54,428.67c-4.62-3.81-11.74-5.71-21.46-5.71c-5.02,0-9.33,0.6-12.84,1.6c-3.61,1-6.52,2.5-8.83,4.31
				c-2.41,1.8-4.11,4.01-5.11,6.42c-1.1,2.4-1.6,5.01-1.6,7.82v2.91c0.01,0.61,0.5,1.1,1.11,1.1h12.03c0.6,0,1.1-0.4,1.1-1
				c0.16-2.66,1.18-5.19,2.91-7.22c2.01-2.31,5.72-3.41,11.23-3.41c2.81,0,5.11,0.3,6.92,0.9c1.81,0.6,3.31,1.41,4.42,2.41
				c1.1,1,1.9,2.01,2.31,3.21c0.5,1.2,0.71,2.31,0.71,3.41v3.11c0,1.3-0.2,2.51-0.71,3.51c-0.5,0.9-1,1.8-1.71,2.61
				c-0.7,0.7-1.4,1.3-2.11,1.7c-0.7,0.4-1.3,0.7-1.7,0.9c-0.4,0.2-1.5,0.5-3.31,1.2c-1.8,0.6-3.81,1.4-6.22,2.2
				c-2.41,0.91-4.91,1.71-7.42,2.61c-2.61,0.9-4.81,1.6-6.82,2.31c-4.02,1.41-7.02,3.91-9.23,7.32c-2.1,3.41-3.21,7.22-3.21,11.44
				v7.82c0,1.9,0.4,4.11,1.1,6.52c0.71,2.31,2.11,4.52,4.21,6.52c2.1,2.01,5.02,3.71,8.63,5.01c3.61,1.3,8.33,2.01,14.24,2.01
				c5.81,0,10.63-0.7,14.24-2.01c3.61-1.41,6.52-3.01,8.62-5.01c2.11-1.91,3.51-4.11,4.21-6.52c0.7-2.31,1.1-4.51,1.1-6.52v-49.14
				C547.36,437.3,545.06,432.48,540.54,428.67z M533.42,487.54c0,4.01-1,7.02-3.01,9.23c-2.01,2.11-5.82,3.21-11.33,3.21
				c-5.42,0-9.13-1.1-11.13-3.11c-2.01-2.11-3.01-5.21-3.01-9.43c0-2.1,0.4-3.81,1.2-5.21c0.81-1.4,1.71-2.51,2.71-3.41
				c1.16-0.94,2.44-1.71,3.81-2.31c1.71-0.7,3.61-1.3,5.62-2.01c1.71-0.5,3.51-1.2,5.42-1.9c1.9-0.7,3.71-1.3,5.41-1.9
				c0.81-0.3,1.6-0.6,2.51-1.2c0.9-0.56,1.52-1.47,1.71-2.51h0.1V487.54z"/>
			<g>
				<path class="st2" d="M683.06,422.96h8.02c0.71,0,1.2,0.7,1,1.4l-2.71,10.43c-0.1,0.5-0.6,0.8-1,0.8h-5.62
					c-3.01,0-5.42,0.41-7.32,1.2c-1.8,0.8-3.31,1.71-4.31,2.81c-0.89,0.94-1.54,2.07-1.9,3.31c-0.3,1.2-0.41,2.31-0.41,3.31v65.19
					c0,0.61-0.49,1.1-1.1,1.11h-12.03c-0.61-0.01-1.1-0.5-1.1-1.11v-68c0-1.2,0.2-3.01,0.7-5.32c0.4-2.31,1.6-4.51,3.51-6.82
					c1.9-2.21,4.72-4.21,8.53-5.82C671.03,423.76,676.34,422.96,683.06,422.96z"/>
				<path class="st2" d="M747.25,428.67c-4.62-3.81-11.74-5.71-21.46-5.71c-5.02,0-9.23,0.6-12.84,1.6c-3.61,1-6.52,2.5-8.83,4.31
					c-2.41,1.8-4.11,4.01-5.11,6.42c-1.1,2.4-1.6,5.01-1.6,7.82v2.91c0.01,0.61,0.5,1.1,1.1,1.1h12.03c0.6,0,1.11-0.4,1.11-1
					c0.16-2.66,1.18-5.19,2.91-7.22c2.01-2.31,5.71-3.41,11.23-3.41c2.81,0,5.11,0.3,6.92,0.9c1.8,0.6,3.31,1.41,4.41,2.41
					c1.11,1,1.91,2.01,2.31,3.21c0.5,1.2,0.7,2.31,0.7,3.41v3.11c0,1.3-0.2,2.51-0.7,3.51c-0.5,0.9-1,1.8-1.71,2.61
					c-0.7,0.7-1.4,1.3-2.11,1.7c-0.7,0.4-1.3,0.7-1.7,0.9c-0.4,0.2-1.51,0.5-3.31,1.2c-1.8,0.6-3.81,1.4-6.22,2.2
					c-2.41,0.91-4.91,1.71-7.42,2.61c-2.61,0.9-4.82,1.6-6.82,2.31c-4.01,1.41-7.02,3.91-9.23,7.32c-2.11,3.41-3.21,7.22-3.21,11.44
					v7.82c0,1.9,0.4,4.11,1.1,6.52c0.71,2.31,2.11,4.52,4.21,6.52c2.1,2.01,5.02,3.71,8.63,5.01c3.61,1.3,8.33,2.01,14.24,2.01
					c5.81,0,10.63-0.7,14.24-2.01c3.61-1.41,6.52-3.01,8.63-5.01c2.11-1.91,3.51-4.11,4.21-6.52c0.7-2.31,1.1-4.51,1.1-6.52v-49.14
					C754.07,437.3,751.76,432.48,747.25,428.67z M740.13,487.54c0,4.01-1,7.02-3.01,9.23c-2.01,2.11-5.82,3.21-11.33,3.21
					c-5.42,0-9.13-1.1-11.13-3.11c-2.01-2.11-3.01-5.21-3.01-9.43c0-2.1,0.4-3.81,1.2-5.21c0.8-1.4,1.71-2.51,2.71-3.41
					c1.16-0.94,2.44-1.71,3.81-2.31c1.7-0.7,3.61-1.3,5.62-2.01c1.71-0.5,3.51-1.2,5.41-1.9c1.91-0.7,3.72-1.3,5.42-1.9
					c0.81-0.3,1.6-0.6,2.51-1.2c0.9-0.56,1.52-1.47,1.71-2.51h0.1V487.54z"/>
			</g>
		</g>
		<g>
			<path class="st3" d="M500.83,607.12c-3.1-1.42-5.53-3.39-7.3-5.93c-1.77-2.54-2.72-5.37-2.83-8.5h6.55
				c0.29,3.01,1.62,5.65,3.98,7.92c2.36,2.27,5.81,3.41,10.36,3.41c4.19,0,7.51-1.08,9.96-3.23c2.45-2.15,3.67-4.88,3.67-8.19
				c0-2.66-0.68-4.79-2.04-6.42c-1.36-1.62-3.04-2.83-5.05-3.63c-2.01-0.8-4.78-1.67-8.32-2.61c-4.13-1.12-7.41-2.21-9.83-3.28
				c-2.42-1.06-4.49-2.71-6.2-4.96c-1.71-2.24-2.57-5.28-2.57-9.12c0-3.19,0.83-6.03,2.48-8.54c1.65-2.51,3.98-4.47,6.99-5.89
				c3.01-1.42,6.46-2.12,10.36-2.12c5.72,0,10.34,1.4,13.86,4.21c3.51,2.8,5.53,6.42,6.06,10.84h-6.73
				c-0.41-2.54-1.8-4.79-4.16-6.77c-2.36-1.98-5.55-2.97-9.56-2.97c-3.72,0-6.82,0.99-9.3,2.97c-2.48,1.98-3.72,4.68-3.72,8.1
				c0,2.6,0.68,4.69,2.04,6.29c1.36,1.59,3.05,2.8,5.09,3.63c2.04,0.83,4.79,1.71,8.28,2.66c4.01,1.12,7.26,2.23,9.74,3.32
				c2.48,1.09,4.57,2.76,6.29,5c1.71,2.24,2.57,5.25,2.57,9.03c0,2.89-0.77,5.64-2.3,8.23c-1.54,2.6-3.81,4.69-6.82,6.29
				c-3.01,1.59-6.61,2.39-10.8,2.39C507.52,609.24,503.93,608.53,500.83,607.12z"/>
			<path class="st3" d="M578.25,608.62l-26.82-28.59v28.59h-6.2v-61.88h6.2v28.95l26.82-28.95h7.88l-28.95,30.9l29.21,30.98H578.25z
				"/>
			<path class="st3" d="M603.48,546.74v61.88h-6.2v-61.88H603.48z"/>
			<path class="st3" d="M679.79,547.54v61.08h-6.2v-48.78l-21.78,48.78h-4.52l-21.78-48.6v48.6h-6.2v-61.08h6.55l23.64,52.94
				l23.64-52.94H679.79z"/>
			<path class="st3" d="M707.86,605.21c-4.66-2.68-8.34-6.43-11.02-11.24c-2.69-4.81-4.03-10.25-4.03-16.33
				c0-6.08,1.34-11.52,4.03-16.33c2.68-4.81,6.36-8.56,11.02-11.24c4.66-2.69,9.86-4.03,15.58-4.03c5.78,0,11.01,1.34,15.67,4.03
				c4.66,2.69,8.32,6.43,10.98,11.24c2.66,4.81,3.98,10.26,3.98,16.33c0,6.08-1.33,11.52-3.98,16.33
				c-2.66,4.81-6.32,8.56-10.98,11.24c-4.66,2.69-9.89,4.03-15.67,4.03C717.71,609.24,712.52,607.9,707.86,605.21z M735.83,600.65
				c3.66-2.12,6.55-5.18,8.68-9.16c2.12-3.98,3.19-8.6,3.19-13.85c0-5.25-1.06-9.86-3.19-13.81c-2.12-3.95-5.02-6.99-8.68-9.12
				c-3.66-2.12-7.79-3.19-12.39-3.19c-4.6,0-8.74,1.06-12.39,3.19c-3.66,2.12-6.55,5.17-8.68,9.12c-2.12,3.95-3.19,8.56-3.19,13.81
				c0,5.25,1.06,9.87,3.19,13.85c2.12,3.98,5.02,7.04,8.68,9.16c3.66,2.12,7.79,3.19,12.39,3.19
				C728.04,603.84,732.17,602.78,735.83,600.65z"/>
		</g>
	</g>
	<path class="st3" d="M456.08,500c0-3.95-0.23-7.85-0.65-11.68h-39.77l31.27-31.27c-3.17-7.06-7.09-13.72-11.67-19.85l-51.11,51.12
		h-21.77v-22.51L413,415.17c-6.19-4.53-12.9-8.4-20.01-11.51l-30.63,30.63v-38.75c-3.73-0.4-7.52-0.61-11.36-0.61
		c-3.69,0-7.33,0.19-10.93,0.56v38.8l-30.76-30.76c-7.13,3.09-13.85,6.94-20.06,11.46l50.82,50.82v22.51h-23.25l-50.51-50.51
		c-4.54,6.18-8.43,12.87-11.55,19.97l30.54,30.54h-38.73c-0.42,3.84-0.65,7.73-0.65,11.68c0,3.58,0.18,7.12,0.53,10.6h38.85
		l-30.87,30.87c3.07,7.14,6.92,13.88,11.42,20.1l50.97-50.97h23.25v22.51l-51.44,51.44c6.16,4.55,12.84,8.45,19.94,11.58
		l31.51-31.51v39.88c3.59,0.37,7.24,0.56,10.93,0.56c3.84,0,7.63-0.21,11.36-0.61v-39.83l31.38,31.38
		c7.08-3.16,13.74-7.07,19.89-11.64l-51.26-51.26V510.6h21.77l51.57,51.57c4.54-6.18,8.42-12.87,11.55-19.98l-31.6-31.6h39.9
		C455.9,507.12,456.08,503.58,456.08,500L456.08,500z"/>
</g>
<g>
	<g>
		<g>
			<path class="st0" d="M-459.6,390.76h11.94c0.6,0,1.1,0.5,1.1,1.1v119.45c0,0.61-0.49,1.1-1.1,1.11h-11.94
				c-0.61-0.01-1.1-0.5-1.1-1.11V391.86C-460.7,391.26-460.2,390.76-459.6,390.76z"/>
			<path class="st0" d="M-377.56,489.05v3.01c0,1.3-0.2,3.11-0.7,5.42c-0.4,2.2-1.6,4.51-3.51,6.72c-1.9,2.21-4.71,4.21-8.53,5.82
				c-3.81,1.6-9.03,2.41-15.75,2.41c-6.72,0-11.94-0.8-15.75-2.41c-3.81-1.6-6.62-3.51-8.53-5.82c-1.9-2.21-3.11-4.51-3.51-6.82
				c-0.4-2.31-0.7-4.01-0.7-5.32v-68c0-0.6,0.5-1.1,1.1-1.1h11.94c0.6,0,1.1,0.5,1.1,1.1v63.69c0,2.11,0.3,3.61,0.6,4.81
				c0.3,1.2,0.9,2.41,1.8,3.41c0.9,1.11,2.31,2.01,4.21,2.71c1.8,0.7,4.31,1.1,7.42,1.1c3.21,0,5.81-0.41,7.72-1.1
				c1.9-0.71,3.31-1.6,4.32-2.61c1-1,1.7-2.11,2.01-3.31c0.3-1.2,0.7-2.2,0.7-5.11v-63.59c0-0.6,0.5-1.1,1.1-1.1h11.94
				c0.6,0,1.1,0.5,1.1,1.1v64.99L-377.56,489.05L-377.56,489.05z"/>
			<path class="st0" d="M-479.46,428.67c-4.62-3.81-11.74-5.71-21.46-5.71c-5.02,0-9.33,0.6-12.84,1.6c-3.61,1-6.52,2.5-8.83,4.31
				c-2.41,1.8-4.11,4.01-5.11,6.42c-1.1,2.4-1.6,5.01-1.6,7.82v2.91c0.01,0.61,0.5,1.1,1.11,1.1h12.03c0.6,0,1.1-0.4,1.1-1
				c0.16-2.66,1.18-5.19,2.91-7.22c2.01-2.31,5.72-3.41,11.23-3.41c2.81,0,5.11,0.3,6.92,0.9c1.81,0.6,3.31,1.41,4.42,2.41
				c1.1,1,1.9,2.01,2.31,3.21c0.5,1.2,0.71,2.31,0.71,3.41v3.11c0,1.3-0.2,2.51-0.71,3.51c-0.5,0.9-1,1.8-1.71,2.61
				c-0.7,0.7-1.4,1.3-2.11,1.7c-0.7,0.4-1.3,0.7-1.7,0.9c-0.4,0.2-1.5,0.5-3.31,1.2c-1.8,0.6-3.81,1.4-6.22,2.2
				c-2.41,0.91-4.91,1.71-7.42,2.61c-2.61,0.9-4.81,1.6-6.82,2.31c-4.02,1.41-7.02,3.91-9.23,7.32c-2.1,3.41-3.21,7.22-3.21,11.44
				v7.82c0,1.9,0.4,4.11,1.1,6.52c0.71,2.31,2.11,4.52,4.21,6.52c2.1,2.01,5.02,3.71,8.63,5.01c3.61,1.3,8.33,2.01,14.24,2.01
				c5.81,0,10.63-0.7,14.24-2.01c3.61-1.41,6.52-3.01,8.62-5.01c2.11-1.91,3.51-4.11,4.21-6.52c0.7-2.31,1.1-4.51,1.1-6.52v-49.14
				C-472.64,437.3-474.94,432.48-479.46,428.67z M-486.58,487.54c0,4.01-1,7.02-3.01,9.23c-2.01,2.11-5.82,3.21-11.33,3.21
				c-5.42,0-9.13-1.1-11.13-3.11c-2.01-2.11-3.01-5.21-3.01-9.43c0-2.1,0.4-3.81,1.2-5.21c0.81-1.4,1.71-2.51,2.71-3.41
				c1.16-0.94,2.44-1.71,3.81-2.31c1.71-0.7,3.61-1.3,5.62-2.01c1.71-0.5,3.51-1.2,5.42-1.9c1.9-0.7,3.71-1.3,5.41-1.9
				c0.81-0.3,1.6-0.6,2.51-1.2c0.9-0.56,1.52-1.47,1.71-2.51h0.1V487.54z"/>
			<g>
				<path class="st0" d="M-336.94,422.96h8.02c0.71,0,1.2,0.7,1,1.4l-2.71,10.43c-0.1,0.5-0.6,0.8-1,0.8h-5.62
					c-3.01,0-5.42,0.41-7.32,1.2c-1.8,0.8-3.31,1.71-4.31,2.81c-0.89,0.94-1.54,2.07-1.9,3.31c-0.3,1.2-0.41,2.31-0.41,3.31v65.19
					c0,0.61-0.49,1.1-1.1,1.11h-12.03c-0.61-0.01-1.1-0.5-1.1-1.11v-68c0-1.2,0.2-3.01,0.7-5.32c0.4-2.31,1.6-4.51,3.51-6.82
					c1.9-2.21,4.72-4.21,8.53-5.82C-348.97,423.76-343.66,422.96-336.94,422.96z"/>
				<path class="st0" d="M-272.75,428.67c-4.62-3.81-11.74-5.71-21.46-5.71c-5.02,0-9.23,0.6-12.84,1.6c-3.61,1-6.52,2.5-8.82,4.31
					c-2.41,1.8-4.11,4.01-5.11,6.42c-1.1,2.4-1.6,5.01-1.6,7.82v2.91c0.01,0.61,0.5,1.1,1.1,1.1h12.03c0.6,0,1.11-0.4,1.11-1
					c0.16-2.66,1.18-5.19,2.91-7.22c2.01-2.31,5.71-3.41,11.23-3.41c2.81,0,5.11,0.3,6.92,0.9c1.8,0.6,3.31,1.41,4.41,2.41
					c1.11,1,1.91,2.01,2.31,3.21c0.5,1.2,0.7,2.31,0.7,3.41v3.11c0,1.3-0.2,2.51-0.7,3.51c-0.5,0.9-1,1.8-1.71,2.61
					c-0.7,0.7-1.4,1.3-2.11,1.7c-0.7,0.4-1.3,0.7-1.7,0.9c-0.4,0.2-1.51,0.5-3.31,1.2c-1.8,0.6-3.81,1.4-6.22,2.2
					c-2.41,0.91-4.91,1.71-7.42,2.61c-2.61,0.9-4.82,1.6-6.82,2.31c-4.01,1.41-7.02,3.91-9.23,7.32c-2.11,3.41-3.21,7.22-3.21,11.44
					v7.82c0,1.9,0.4,4.11,1.1,6.52c0.7,2.31,2.11,4.52,4.21,6.52c2.1,2.01,5.02,3.71,8.63,5.01c3.61,1.3,8.33,2.01,14.24,2.01
					c5.81,0,10.63-0.7,14.24-2.01c3.61-1.41,6.52-3.01,8.63-5.01c2.11-1.91,3.51-4.11,4.21-6.52c0.7-2.31,1.1-4.51,1.1-6.52v-49.14
					C-265.93,437.3-268.24,432.48-272.75,428.67z M-279.87,487.54c0,4.01-1,7.02-3.01,9.23c-2.01,2.11-5.82,3.21-11.33,3.21
					c-5.42,0-9.13-1.1-11.13-3.11c-2.01-2.11-3.01-5.21-3.01-9.43c0-2.1,0.4-3.81,1.2-5.21c0.8-1.4,1.71-2.51,2.71-3.41
					c1.16-0.94,2.44-1.71,3.81-2.31c1.7-0.7,3.61-1.3,5.62-2.01c1.71-0.5,3.51-1.2,5.41-1.9c1.91-0.7,3.72-1.3,5.42-1.9
					c0.81-0.3,1.6-0.6,2.51-1.2c0.9-0.56,1.52-1.47,1.71-2.51h0.1V487.54z"/>
			</g>
		</g>
		<g>
			<path class="st4" d="M-519.17,607.12c-3.1-1.42-5.53-3.39-7.3-5.93c-1.77-2.54-2.72-5.37-2.83-8.5h6.55
				c0.29,3.01,1.62,5.65,3.98,7.92c2.36,2.27,5.81,3.41,10.36,3.41c4.19,0,7.51-1.08,9.96-3.23c2.45-2.15,3.67-4.88,3.67-8.19
				c0-2.66-0.68-4.79-2.04-6.42c-1.36-1.62-3.04-2.83-5.05-3.63c-2.01-0.8-4.78-1.67-8.32-2.61c-4.13-1.12-7.41-2.21-9.83-3.28
				c-2.42-1.06-4.49-2.71-6.2-4.96c-1.71-2.24-2.57-5.28-2.57-9.12c0-3.19,0.83-6.03,2.48-8.54c1.65-2.51,3.98-4.47,6.99-5.89
				c3.01-1.42,6.46-2.12,10.36-2.12c5.72,0,10.34,1.4,13.86,4.21c3.51,2.8,5.53,6.42,6.06,10.84h-6.73
				c-0.41-2.54-1.8-4.79-4.16-6.77c-2.36-1.98-5.55-2.97-9.56-2.97c-3.72,0-6.82,0.99-9.3,2.97c-2.48,1.98-3.72,4.68-3.72,8.1
				c0,2.6,0.68,4.69,2.04,6.29c1.36,1.59,3.05,2.8,5.09,3.63c2.04,0.83,4.79,1.71,8.28,2.66c4.01,1.12,7.26,2.23,9.74,3.32
				c2.48,1.09,4.57,2.76,6.29,5c1.71,2.24,2.57,5.25,2.57,9.03c0,2.89-0.77,5.64-2.3,8.23c-1.54,2.6-3.81,4.69-6.82,6.29
				c-3.01,1.59-6.61,2.39-10.8,2.39C-512.48,609.24-516.07,608.53-519.17,607.12z"/>
			<path class="st4" d="M-441.75,608.62l-26.82-28.59v28.59h-6.2v-61.88h6.2v28.95l26.82-28.95h7.88l-28.95,30.9l29.21,30.98
				H-441.75z"/>
			<path class="st4" d="M-416.52,546.74v61.88h-6.2v-61.88H-416.52z"/>
			<path class="st4" d="M-340.21,547.54v61.08h-6.2v-48.78l-21.78,48.78h-4.52l-21.78-48.6v48.6h-6.2v-61.08h6.55l23.64,52.94
				l23.64-52.94H-340.21z"/>
			<path class="st4" d="M-312.14,605.21c-4.66-2.68-8.34-6.43-11.02-11.24c-2.69-4.81-4.03-10.25-4.03-16.33
				c0-6.08,1.34-11.52,4.03-16.33c2.68-4.81,6.36-8.56,11.02-11.24c4.66-2.69,9.86-4.03,15.58-4.03c5.78,0,11.01,1.34,15.67,4.03
				c4.66,2.69,8.32,6.43,10.98,11.24c2.66,4.81,3.98,10.26,3.98,16.33c0,6.08-1.33,11.52-3.98,16.33
				c-2.66,4.81-6.32,8.56-10.98,11.24c-4.66,2.69-9.89,4.03-15.67,4.03C-302.29,609.24-307.48,607.9-312.14,605.21z M-284.17,600.65
				c3.66-2.12,6.55-5.18,8.68-9.16c2.12-3.98,3.19-8.6,3.19-13.85c0-5.25-1.06-9.86-3.19-13.81c-2.12-3.95-5.02-6.99-8.68-9.12
				c-3.66-2.12-7.79-3.19-12.39-3.19c-4.6,0-8.74,1.06-12.39,3.19c-3.66,2.12-6.55,5.17-8.68,9.12c-2.12,3.95-3.19,8.56-3.19,13.81
				c0,5.25,1.06,9.87,3.19,13.85c2.12,3.98,5.02,7.04,8.68,9.16c3.66,2.12,7.79,3.19,12.39,3.19
				C-291.96,603.84-287.83,602.78-284.17,600.65z"/>
		</g>
	</g>
	<path class="st4" d="M-563.92,500c0-3.95-0.23-7.85-0.65-11.68h-39.77l31.27-31.27c-3.17-7.06-7.09-13.72-11.67-19.85l-51.11,51.12
		h-21.77v-22.51l50.64-50.64c-6.19-4.53-12.9-8.4-20.01-11.51l-30.63,30.63v-38.75c-3.73-0.4-7.52-0.61-11.36-0.61
		c-3.69,0-7.33,0.19-10.93,0.56v38.8l-30.76-30.76c-7.13,3.09-13.85,6.94-20.06,11.46l50.82,50.82v22.51h-23.25l-50.51-50.51
		c-4.54,6.18-8.43,12.87-11.55,19.97l30.54,30.54h-38.73c-0.42,3.84-0.65,7.73-0.65,11.68c0,3.58,0.18,7.12,0.53,10.6h38.85
		l-30.87,30.87c3.07,7.14,6.92,13.88,11.42,20.1l50.97-50.97h23.25v22.51l-51.44,51.44c6.16,4.55,12.84,8.45,19.94,11.58
		l31.51-31.51v39.88c3.59,0.37,7.24,0.56,10.93,0.56c3.84,0,7.63-0.21,11.36-0.61v-39.83l31.38,31.38
		c7.08-3.16,13.74-7.07,19.89-11.64l-51.26-51.26V510.6h21.77l51.57,51.57c4.54-6.18,8.42-12.87,11.55-19.98l-31.6-31.6h39.9
		C-564.1,507.12-563.92,503.58-563.92,500L-563.92,500z"/>
</g>
</svg>
